<svg id="Layer_1" data-name="Layer 1" xmlns="http://www.w3.org/2000/svg" xmlns:xlink="http://www.w3.org/1999/xlink" viewBox="0 0 342.6 436.9"><defs><style>.cls-1{fill:#2e455c;}.cls-2{fill:url(#linear-gradient);}.cls-3{fill:url(#linear-gradient-2);}</style><linearGradient id="linear-gradient" x1="49.56" y1="121.76" x2="293.09" y2="121.76" gradientUnits="userSpaceOnUse"><stop offset="0" stop-color="#314558"/><stop offset="1" stop-color="#2e455c"/></linearGradient><linearGradient id="linear-gradient-2" x1="137.02" y1="121.76" x2="205.63" y2="121.76" gradientTransform="translate(136.3 -85.5) rotate(45)" xlink:href="#linear-gradient"/></defs><title>Artboard 49</title><path class="cls-1" d="M32.1,310.6a11.5,11.5,0,0,0-4.1-3.5,12.8,12.8,0,0,0-6.1-1.3,19.2,19.2,0,0,0-9.6,2.6,18,18,0,0,0-6.6,6.8V290.5H0v56.1H5.7V322.1a15.4,15.4,0,0,1,2.1-4.5,23.8,23.8,0,0,1,3.5-3.6,14.4,14.4,0,0,1,4.2-2.3,12,12,0,0,1,4.5-.9,8.3,8.3,0,0,1,7.1,3.3c1.6,2.2,2.4,5.6,2.4,10.1v22.4h5.7V323.1a30.6,30.6,0,0,0-.8-7A13.7,13.7,0,0,0,32.1,310.6Z"/><path class="cls-1" d="M81.1,346.6h.1v-4.9h-.1c-1.3,0-1.9-.6-1.9-2V321.8c0-5-1.5-8.9-4.5-11.8s-7.1-4.2-12.3-4.2S52,307.5,46.7,311h-.1l2,3.6h.1a33.9,33.9,0,0,1,6.8-3.5,19.3,19.3,0,0,1,6.5-1.3,11.8,11.8,0,0,1,8.5,3.1c2,2,3,4.8,3,8.3v3.4a34.7,34.7,0,0,0-5.6-1.5,48.7,48.7,0,0,0-6.5-.5,25.8,25.8,0,0,0-7,.9,18,18,0,0,0-5.6,2.5,13.3,13.3,0,0,0-3.6,3.9,8.9,8.9,0,0,0-1.3,4.8,11.4,11.4,0,0,0,1.1,4.9,9.6,9.6,0,0,0,2.9,4,13,13,0,0,0,4.4,2.7,16.3,16.3,0,0,0,5.5,1,22.6,22.6,0,0,0,9.4-2,18.7,18.7,0,0,0,7.1-5.3v2.8a4,4,0,0,0,1.3,2.9,4.8,4.8,0,0,0,3.3,1Zm-7.6-18.3v6.4a3.9,3.9,0,0,1-.3,1.4,4.8,4.8,0,0,1-1.1,1.5,13,13,0,0,1-5.3,4,19.2,19.2,0,0,1-7.7,1.5,10,10,0,0,1-3.9-.7,8.7,8.7,0,0,1-3.1-1.8,9.5,9.5,0,0,1-2-2.8,7.3,7.3,0,0,1-.8-3.3,6.8,6.8,0,0,1,3.6-6,16.7,16.7,0,0,1,9.2-2.3,28.8,28.8,0,0,1,5.9.6A24.8,24.8,0,0,1,73.5,328.3Z"/><path class="cls-1" d="M97.1,321.7a14.9,14.9,0,0,1,5.7-7.5,17.8,17.8,0,0,1,9.5-2.9h.1v-4.9h-1.1a14.9,14.9,0,0,0-8.5,2.6,18.1,18.1,0,0,0-6,6.8v-9.2H91.5v40.1h5.6Z"/><path class="cls-1" d="M144.2,345a17.4,17.4,0,0,0,6.5-5.8v3.4a3.7,3.7,0,0,0,1.5,3,5,5,0,0,0,3.4,1.2l1.9-.2h.1v-4.9h-.1c-1.2,0-1.8-.6-1.8-2V290.5H150v24a20.5,20.5,0,0,0-6.1-6,16.9,16.9,0,0,0-9.4-2.7,17.7,17.7,0,0,0-7.7,1.7,18.9,18.9,0,0,0-6,4.5,20.8,20.8,0,0,0-4,6.6,23.6,23.6,0,0,0-1.4,8,20.9,20.9,0,0,0,1.5,7.9,20.6,20.6,0,0,0,10.4,11.1,18.4,18.4,0,0,0,8,1.8A17.8,17.8,0,0,0,144.2,345Zm-13.7-3.8a15.4,15.4,0,0,1-4.9-3.4,19.1,19.1,0,0,1-3.2-5.1,15.4,15.4,0,0,1-1.2-6.1,19.7,19.7,0,0,1,1-5.9,16.3,16.3,0,0,1,3-5.1,14.7,14.7,0,0,1,4.6-3.6,13.3,13.3,0,0,1,6-1.4,14.1,14.1,0,0,1,4.4.8,17.5,17.5,0,0,1,7.6,5.3,11.1,11.1,0,0,1,2.2,3.8v12.2a8.3,8.3,0,0,1-1.6,3.9,20.2,20.2,0,0,1-3.4,3.1,20.6,20.6,0,0,1-4.2,2.1,13.3,13.3,0,0,1-4.3.7A13.8,13.8,0,0,1,130.5,341.2Z"/><polygon class="cls-1" points="203.9 346.6 208.5 346.6 226.4 306.7 226.5 306.5 220.8 306.5 205.9 340.8 198.1 322.9 205.2 306.7 205.3 306.6 200.4 306.6 195 319.4 189.7 306.6 184.9 306.6 192 322.9 184.3 340.8 169.2 306.6 169.2 306.5 163.7 306.5 181.6 346.5 181.6 346.6 186.3 346.6 195 326.4 203.8 346.5 203.9 346.6"/><path class="cls-1" d="M265,339.7V321.8c0-5-1.5-8.9-4.5-11.8s-7.1-4.2-12.3-4.2-10.3,1.7-15.7,5.2h-.1l2,3.6h.1a33.9,33.9,0,0,1,6.8-3.5,19.3,19.3,0,0,1,6.5-1.3,11.6,11.6,0,0,1,8.5,3.1,11.3,11.3,0,0,1,3.1,8.3v3.4a39.2,39.2,0,0,0-5.7-1.5,48.7,48.7,0,0,0-6.5-.5,25.8,25.8,0,0,0-7,.9,18,18,0,0,0-5.6,2.5A13.3,13.3,0,0,0,231,330a9.8,9.8,0,0,0-1.3,4.8,11.4,11.4,0,0,0,1.1,4.9,11.8,11.8,0,0,0,2.9,4,15.3,15.3,0,0,0,4.4,2.7,16.8,16.8,0,0,0,5.5,1,22.3,22.3,0,0,0,9.4-2,18.7,18.7,0,0,0,7.1-5.3v2.8a4,4,0,0,0,1.3,2.9,4.8,4.8,0,0,0,3.3,1l2.1-.2h.1v-4.9h-.1C265.6,341.7,265,341.1,265,339.7Zm-5.6-11.4v6.4a2.7,2.7,0,0,1-.4,1.4,6.5,6.5,0,0,1-1,1.5,12.8,12.8,0,0,1-5.4,4,19.2,19.2,0,0,1-7.7,1.5,9.5,9.5,0,0,1-3.8-.7,8.3,8.3,0,0,1-3.2-1.8,9.5,9.5,0,0,1-2-2.8,7.2,7.2,0,0,1-.7-3.3,6.7,6.7,0,0,1,3.5-6,16.9,16.9,0,0,1,9.2-2.3,30.5,30.5,0,0,1,6,.6A28.1,28.1,0,0,1,259.4,328.3Z"/><path class="cls-1" d="M297.1,306.3a14.4,14.4,0,0,0-8.4,2.6,18.4,18.4,0,0,0-6.1,6.8v-9.2h-5.3v40.1H283V321.7a14.7,14.7,0,0,1,5.6-7.5,17.8,17.8,0,0,1,9.5-2.9h.2v-4.9h-1.2Z"/><path class="cls-1" d="M341.1,318.5a19.2,19.2,0,0,0-4.2-6.5,19.6,19.6,0,0,0-6.6-4.6,20.5,20.5,0,0,0-8.3-1.6,21.3,21.3,0,0,0-8.4,1.6,22,22,0,0,0-6.6,4.5,20.9,20.9,0,0,0-4.3,6.6,18.9,18.9,0,0,0-1.6,7.9,19.9,19.9,0,0,0,1.6,8.1,21.1,21.1,0,0,0,4.4,6.7,19.3,19.3,0,0,0,6.6,4.5,20.5,20.5,0,0,0,8.3,1.7,22.7,22.7,0,0,0,5.9-.8,19.5,19.5,0,0,0,5.1-2.1,18.4,18.4,0,0,0,4.1-3.1,14.2,14.2,0,0,0,2.8-4.1h0l-4.9-1.3h-.1a9.4,9.4,0,0,1-2,2.9,12.9,12.9,0,0,1-3,2.2,13.7,13.7,0,0,1-3.7,1.5,17.4,17.4,0,0,1-3.9.5,13.8,13.8,0,0,1-5.7-1.1,15.7,15.7,0,0,1-4.7-3,17.3,17.3,0,0,1-3.3-4.7,16.1,16.1,0,0,1-1.6-5.8h35.6v-2.1A20.4,20.4,0,0,0,341.1,318.5Zm-3.9,5.8H307a14.9,14.9,0,0,1,1.4-5.6,13.9,13.9,0,0,1,3.3-4.6,14.9,14.9,0,0,1,4.7-2.9,15.1,15.1,0,0,1,5.6-1.1,15.6,15.6,0,0,1,5.7,1.1,16.1,16.1,0,0,1,4.7,2.9,18.7,18.7,0,0,1,3.3,4.5A17.1,17.1,0,0,1,337.2,324.3Z"/><path class="cls-1" d="M113.6,390.8a27.4,27.4,0,0,0-6.5-6.2,16.6,16.6,0,0,0-9.3-2.5,17.3,17.3,0,0,0-7.9,1.7,18.3,18.3,0,0,0-6.1,4.5,19.6,19.6,0,0,0-4,6.7,23.5,23.5,0,0,0-1.4,7.9,19.8,19.8,0,0,0,1.5,7.6,20.1,20.1,0,0,0,4,6.6,18.7,18.7,0,0,0,6.2,4.5,17,17,0,0,0,7.9,1.8,19,19,0,0,0,8.7-2.2,17.9,17.9,0,0,0,6.4-5.8v4.5a11.8,11.8,0,0,1-1.2,5.5,12.6,12.6,0,0,1-3.2,4,13.8,13.8,0,0,1-4.7,2.3,17.9,17.9,0,0,1-5.7.8,21.2,21.2,0,0,1-8.7-1.8,13.9,13.9,0,0,1-6.5-5.5V425l-3.5,2.7h0a20.7,20.7,0,0,0,7.2,6.6c2.9,1.7,6.8,2.5,11.6,2.5a29,29,0,0,0,7.9-1.1,19.7,19.7,0,0,0,6.5-3.2,15.6,15.6,0,0,0,6-12.7V382.7h-5.1Zm-14.1,28a13.2,13.2,0,0,1-6-1.3,15.4,15.4,0,0,1-4.9-3.4,15.6,15.6,0,0,1-3.3-5,18.3,18.3,0,0,1-1.1-6.1,20.1,20.1,0,0,1,.9-5.9A18.3,18.3,0,0,1,88,392a14.3,14.3,0,0,1,4.7-3.7,13.5,13.5,0,0,1,6.2-1.4,13.1,13.1,0,0,1,4.3.8,15.6,15.6,0,0,1,4.1,2,16.7,16.7,0,0,1,3.4,3.1,15.8,15.8,0,0,1,2.4,3.9V409a9.8,9.8,0,0,1-1.7,3.6,15.2,15.2,0,0,1-3.1,3.1,14,14,0,0,1-4.2,2.2A12.2,12.2,0,0,1,99.5,418.8Z"/><path class="cls-1" d="M166.5,416V382.7h-5.6v25.2a16.3,16.3,0,0,1-2.5,4.5,16.1,16.1,0,0,1-3.5,3.4,14.1,14.1,0,0,1-4.2,2.2,15,15,0,0,1-4.7.8c-6.3,0-9.5-4.5-9.5-13.4V382.7h-5.7v23.6c0,5.7,1.2,10.1,3.4,12.9s5.6,4.4,10.2,4.4a20.3,20.3,0,0,0,9.9-2.6,18.4,18.4,0,0,0,7.2-6.9v4.2a4.9,4.9,0,0,0,1.2,3.4,5.1,5.1,0,0,0,3.2,1.3h.9a5.3,5.3,0,0,0,1.6-.2h.1V418h-.2C167.1,418,166.5,417.3,166.5,416Z"/><rect class="cls-1" x="179.4" y="372.2" width="5.7" height="6.43"/><rect class="cls-1" x="179.4" y="382.7" width="5.7" height="40.1"/><path class="cls-1" d="M212.4,417.5l-2.2.6-2,.2a4.3,4.3,0,0,1-4.8-4.6V372.1h-5.6v43.4a7.2,7.2,0,0,0,2.2,5.7,8,8,0,0,0,5.9,2.1,19.8,19.8,0,0,0,3.9-.4,16.4,16.4,0,0,0,3.7-1h.1l-1-4.5Z"/><path class="cls-1" d="M257.5,416V372.1h-5.6v18.7a20.1,20.1,0,0,0-6.2-6.1,17.5,17.5,0,0,0-9.4-2.6,18,18,0,0,0-7.7,1.6,18.9,18.9,0,0,0-6,4.5,19.4,19.4,0,0,0-3.9,6.7,21.5,21.5,0,0,0-1.5,8,20.8,20.8,0,0,0,1.5,7.8,22.3,22.3,0,0,0,4.1,6.6,21.4,21.4,0,0,0,6.4,4.6,19.1,19.1,0,0,0,8,1.7,18.6,18.6,0,0,0,8.8-2.3,17.6,17.6,0,0,0,6.5-5.9v3.5a3.7,3.7,0,0,0,1.5,3,5.2,5.2,0,0,0,3.4,1.2l2-.3h.1V418h-.2C258.1,418,257.5,417.3,257.5,416Zm-5.6-7a8.1,8.1,0,0,1-1.7,3.8,14.5,14.5,0,0,1-3.4,3.1,16.5,16.5,0,0,1-4.2,2.1,13.5,13.5,0,0,1-4.2.8,15.5,15.5,0,0,1-6.1-1.3,15.2,15.2,0,0,1-4.8-3.5,15.6,15.6,0,0,1-3.3-5,15.8,15.8,0,0,1-1.2-6.1,17.1,17.1,0,0,1,1.1-5.9,16.9,16.9,0,0,1,2.9-5.1,15.1,15.1,0,0,1,4.7-3.6,13,13,0,0,1,6-1.4,13.5,13.5,0,0,1,4.3.8,16.5,16.5,0,0,1,4.2,2.1,19.9,19.9,0,0,1,3.4,3.1,13.8,13.8,0,0,1,2.3,3.8Z"/><path class="cls-2" d="M198.1,243.5l-26.8-26.7-26.7,26.7-95-95,26.7-26.7L49.6,95l95-95,26.7,26.8L198.1,0l95,95-26.8,26.8,26.8,26.7ZM92,148.5l52.6,52.6,26.7-26.8,26.8,26.8,52.6-52.6-26.8-26.7L250.7,95,198.1,42.4,171.3,69.2,144.6,42.4,92,95l26.8,26.8Z"/><rect class="cls-3" x="147.1" y="97.5" width="48.5" height="48.51" transform="translate(-35.9 156.8) rotate(-45)"/></svg>